<svg width="1200" height="72" viewBox="0 0 1200 72" fill="none" xmlns="http://www.w3.org/2000/svg">
<rect width="1200" height="72" fill="#2C2B2B"/>
<path d="M20.7294 24.36V23.484C19.9134 23.484 19.2094 23.332 18.6174 23.028C18.0334 22.716 17.5814 22.284 17.2614 21.732C16.9494 21.18 16.7934 20.536 16.7934 19.8V19.56C16.7934 18.904 16.9494 18.316 17.2614 17.796C17.5814 17.276 18.0334 16.868 18.6174 16.572C19.2094 16.268 19.9134 16.116 20.7294 16.116V15.24H21.8574V16.116C22.6814 16.116 23.3854 16.268 23.9694 16.572C24.5534 16.868 25.0014 17.276 25.3134 17.796C25.6334 18.316 25.7934 18.904 25.7934 19.56V19.8C25.7934 20.536 25.6334 21.18 25.3134 21.732C25.0014 22.284 24.5534 22.716 23.9694 23.028C23.3854 23.332 22.6814 23.484 21.8574 23.484V24.36H20.7294ZM24.5934 19.8V19.56C24.5934 19.096 24.4854 18.684 24.2694 18.324C24.0614 17.956 23.7534 17.664 23.3454 17.448C22.9454 17.232 22.4494 17.124 21.8574 17.124V22.476C22.4494 22.476 22.9454 22.368 23.3454 22.152C23.7534 21.928 24.0614 21.616 24.2694 21.216C24.4854 20.808 24.5934 20.336 24.5934 19.8ZM17.9934 19.56V19.8C17.9934 20.336 18.0974 20.808 18.3054 21.216C18.5214 21.616 18.8334 21.928 19.2414 22.152C19.6494 22.368 20.1454 22.476 20.7294 22.476V17.124C20.1454 17.124 19.6494 17.232 19.2414 17.448C18.8334 17.664 18.5214 17.956 18.3054 18.324C18.0974 18.684 17.9934 19.096 17.9934 19.56ZM28.9897 24.12C28.5257 24.12 28.1297 24.036 27.8017 23.868C27.4817 23.692 27.2377 23.456 27.0697 23.16C26.9017 22.856 26.8177 22.516 26.8177 22.14C26.8177 21.508 27.0017 21.052 27.3697 20.772C27.7457 20.492 28.2817 20.352 28.9777 20.352H31.0417V19.92C31.0417 19.376 30.9177 19 30.6697 18.792C30.4297 18.584 30.0657 18.48 29.5777 18.48C29.1217 18.48 28.7897 18.568 28.5817 18.744C28.3737 18.912 28.2577 19.104 28.2337 19.32H27.1777C27.2017 18.976 27.3177 18.672 27.5257 18.408C27.7337 18.136 28.0177 17.92 28.3777 17.76C28.7377 17.6 29.1577 17.52 29.6377 17.52C30.1417 17.52 30.5777 17.6 30.9457 17.76C31.3137 17.912 31.5977 18.156 31.7977 18.492C31.9977 18.82 32.0977 19.256 32.0977 19.8V22.38C32.0977 22.716 32.0977 23.012 32.0977 23.268C32.1057 23.516 32.1257 23.76 32.1577 24H31.2337C31.2097 23.816 31.1937 23.644 31.1857 23.484C31.1777 23.316 31.1737 23.128 31.1737 22.92C31.0057 23.256 30.7337 23.54 30.3577 23.772C29.9817 24.004 29.5257 24.12 28.9897 24.12ZM29.2177 23.16C29.5537 23.16 29.8577 23.1 30.1297 22.98C30.4097 22.86 30.6297 22.684 30.7897 22.452C30.9577 22.22 31.0417 21.936 31.0417 21.6V21.168H29.1577C28.7657 21.168 28.4577 21.248 28.2337 21.408C28.0097 21.56 27.8977 21.804 27.8977 22.14C27.8977 22.436 28.0017 22.68 28.2097 22.872C28.4257 23.064 28.7617 23.16 29.2177 23.16ZM33.7228 24V17.64H34.7788V22.44L38.0668 17.64H39.1228V24H38.0668V19.2L34.7788 24H33.7228ZM36.4228 16.86C35.7988 16.86 35.3428 16.728 35.0548 16.464C34.7668 16.192 34.6228 15.804 34.6228 15.3H35.6548C35.6548 15.572 35.7188 15.776 35.8468 15.912C35.9748 16.048 36.1668 16.116 36.4228 16.116C36.6868 16.116 36.8828 16.048 37.0108 15.912C37.1468 15.776 37.2148 15.572 37.2148 15.3H38.2228C38.2228 15.804 38.0788 16.192 37.7908 16.464C37.5028 16.728 37.0468 16.86 36.4228 16.86ZM40.507 24.12C40.451 24.12 40.391 24.116 40.327 24.108C40.271 24.1 40.211 24.092 40.147 24.084V23.028C40.171 23.036 40.231 23.04 40.327 23.04C40.567 23.04 40.763 22.936 40.915 22.728C41.067 22.512 41.175 22.136 41.239 21.6C41.311 21.056 41.347 20.296 41.347 19.32V17.64H45.907V24H44.851V18.576H42.403V19.56C42.403 20.448 42.363 21.188 42.283 21.78C42.203 22.364 42.083 22.828 41.923 23.172C41.771 23.516 41.575 23.76 41.335 23.904C41.095 24.048 40.819 24.12 40.507 24.12Z" fill="white"/>
<path d="M72.597 24V15.6H75.477C76.221 15.6 76.829 15.712 77.301 15.936C77.781 16.152 78.137 16.456 78.369 16.848C78.601 17.232 78.717 17.676 78.717 18.18C78.717 18.676 78.601 19.12 78.369 19.512C78.137 19.904 77.781 20.212 77.301 20.436C76.829 20.652 76.221 20.76 75.477 20.76H73.725V24H72.597ZM73.725 19.776H75.417C76.217 19.776 76.777 19.632 77.097 19.344C77.425 19.056 77.589 18.668 77.589 18.18C77.589 17.692 77.425 17.304 77.097 17.016C76.777 16.728 76.217 16.584 75.417 16.584H73.725V19.776ZM82.5031 24.12C81.9671 24.12 81.4631 24.004 80.9911 23.772C80.5271 23.54 80.1511 23.184 79.8631 22.704C79.5831 22.224 79.4431 21.616 79.4431 20.88V20.64C79.4431 19.936 79.5791 19.356 79.8511 18.9C80.1231 18.436 80.4831 18.092 80.9311 17.868C81.3791 17.636 81.8631 17.52 82.3831 17.52C83.3191 17.52 84.0431 17.776 84.5551 18.288C85.0671 18.8 85.3231 19.524 85.3231 20.46V21.132H80.4991C80.4991 21.628 80.5991 22.024 80.7991 22.32C81.0071 22.616 81.2631 22.832 81.5671 22.968C81.8791 23.096 82.1911 23.16 82.5031 23.16C82.9831 23.16 83.3511 23.08 83.6071 22.92C83.8711 22.76 84.0591 22.54 84.1711 22.26H85.2031C85.0751 22.868 84.7591 23.332 84.2551 23.652C83.7591 23.964 83.1751 24.12 82.5031 24.12ZM82.4431 18.48C82.1151 18.48 81.8031 18.544 81.5071 18.672C81.2111 18.792 80.9671 18.984 80.7751 19.248C80.5911 19.512 80.4991 19.852 80.4991 20.268H84.3271C84.3191 19.828 84.2271 19.48 84.0511 19.224C83.8831 18.96 83.6591 18.772 83.3791 18.66C83.0991 18.54 82.7871 18.48 82.4431 18.48ZM85.7469 25.5V23.064H86.5269C86.6469 22.904 86.7509 22.636 86.8389 22.26C86.9269 21.876 86.9949 21.428 87.0429 20.916C87.0989 20.404 87.1269 19.872 87.1269 19.32V17.64H91.5669V23.064H92.4669V25.5H91.4589V24H86.7549V25.5H85.7469ZM87.6069 23.064H90.5109V18.576H88.1589V19.56C88.1589 20.232 88.1109 20.884 88.0149 21.516C87.9269 22.14 87.7909 22.656 87.6069 23.064ZM95.4217 24.12C94.9577 24.12 94.5617 24.036 94.2337 23.868C93.9137 23.692 93.6697 23.456 93.5017 23.16C93.3337 22.856 93.2497 22.516 93.2497 22.14C93.2497 21.508 93.4337 21.052 93.8017 20.772C94.1777 20.492 94.7137 20.352 95.4097 20.352H97.4737V19.92C97.4737 19.376 97.3497 19 97.1017 18.792C96.8617 18.584 96.4977 18.48 96.0097 18.48C95.5537 18.48 95.2217 18.568 95.0137 18.744C94.8057 18.912 94.6897 19.104 94.6657 19.32H93.6097C93.6337 18.976 93.7497 18.672 93.9577 18.408C94.1657 18.136 94.4497 17.92 94.8097 17.76C95.1697 17.6 95.5897 17.52 96.0697 17.52C96.5737 17.52 97.0097 17.6 97.3777 17.76C97.7457 17.912 98.0297 18.156 98.2297 18.492C98.4297 18.82 98.5297 19.256 98.5297 19.8V22.38C98.5297 22.716 98.5297 23.012 98.5297 23.268C98.5377 23.516 98.5577 23.76 98.5897 24H97.6657C97.6417 23.816 97.6257 23.644 97.6177 23.484C97.6097 23.316 97.6057 23.128 97.6057 22.92C97.4377 23.256 97.1657 23.54 96.7897 23.772C96.4137 24.004 95.9577 24.12 95.4217 24.12ZM95.6497 23.16C95.9857 23.16 96.2897 23.1 96.5617 22.98C96.8417 22.86 97.0617 22.684 97.2217 22.452C97.3897 22.22 97.4737 21.936 97.4737 21.6V21.168H95.5897C95.1977 21.168 94.8897 21.248 94.6657 21.408C94.4417 21.56 94.3297 21.804 94.3297 22.14C94.3297 22.436 94.4337 22.68 94.6417 22.872C94.8577 23.064 95.1937 23.16 95.6497 23.16ZM100.155 24V17.64H101.211V20.304H102.051L104.427 17.64H105.675L102.915 20.688L105.795 24H104.451L102.051 21.216H101.211V24H100.155ZM108.269 24V18.576H106.097V17.64H111.497V18.576H109.325V24H108.269ZM112.46 24V17.64H113.516V22.44L116.804 17.64H117.86V24H116.804V19.2L113.516 24H112.46ZM119.544 26.4V17.64H120.528V18.84C120.744 18.416 121.044 18.092 121.428 17.868C121.82 17.636 122.272 17.52 122.784 17.52C123.584 17.52 124.224 17.784 124.704 18.312C125.184 18.832 125.424 19.608 125.424 20.64V20.88C125.424 21.6 125.312 22.2 125.088 22.68C124.872 23.16 124.564 23.52 124.164 23.76C123.772 24 123.312 24.12 122.784 24.12C122.24 24.12 121.784 24 121.416 23.76C121.056 23.52 120.784 23.22 120.6 22.86V26.4H119.544ZM122.544 23.184C123.064 23.184 123.496 22.988 123.84 22.596C124.192 22.204 124.368 21.632 124.368 20.88V20.64C124.368 19.944 124.192 19.408 123.84 19.032C123.496 18.648 123.064 18.456 122.544 18.456C122.16 18.456 121.82 18.536 121.524 18.696C121.236 18.856 121.008 19.076 120.84 19.356C120.68 19.628 120.6 19.936 120.6 20.28V21.24C120.6 21.624 120.68 21.964 120.84 22.26C121.008 22.548 121.236 22.776 121.524 22.944C121.82 23.104 122.16 23.184 122.544 23.184ZM129.327 24.12C128.791 24.12 128.287 24.004 127.815 23.772C127.351 23.532 126.975 23.172 126.687 22.692C126.407 22.212 126.267 21.608 126.267 20.88V20.64C126.267 19.952 126.407 19.376 126.687 18.912C126.975 18.448 127.351 18.1 127.815 17.868C128.287 17.636 128.791 17.52 129.327 17.52C129.871 17.52 130.375 17.636 130.839 17.868C131.303 18.1 131.675 18.448 131.955 18.912C132.243 19.376 132.387 19.952 132.387 20.64V20.88C132.387 21.608 132.243 22.212 131.955 22.692C131.675 23.172 131.303 23.532 130.839 23.772C130.375 24.004 129.871 24.12 129.327 24.12ZM129.327 23.16C129.655 23.16 129.967 23.088 130.263 22.944C130.567 22.792 130.815 22.548 131.007 22.212C131.207 21.876 131.307 21.432 131.307 20.88V20.64C131.307 20.128 131.207 19.716 131.007 19.404C130.815 19.084 130.567 18.852 130.263 18.708C129.967 18.556 129.655 18.48 129.327 18.48C129.007 18.48 128.695 18.556 128.391 18.708C128.087 18.852 127.835 19.084 127.635 19.404C127.443 19.716 127.347 20.128 127.347 20.64V20.88C127.347 21.432 127.443 21.876 127.635 22.212C127.835 22.548 128.087 22.792 128.391 22.944C128.695 23.088 129.007 23.16 129.327 23.16ZM133.642 24V17.64H136.402C136.93 17.64 137.362 17.716 137.698 17.868C138.034 18.012 138.282 18.216 138.442 18.48C138.602 18.736 138.682 19.036 138.682 19.38C138.682 19.66 138.59 19.928 138.406 20.184C138.23 20.432 138.002 20.604 137.722 20.7C138.114 20.796 138.41 20.98 138.61 21.252C138.818 21.516 138.922 21.828 138.922 22.188C138.922 22.74 138.738 23.18 138.37 23.508C138.002 23.836 137.426 24 136.642 24H133.642ZM134.698 23.064H136.642C137.09 23.064 137.406 22.984 137.59 22.824C137.774 22.664 137.866 22.436 137.866 22.14C137.866 21.836 137.774 21.604 137.59 21.444C137.406 21.276 137.09 21.192 136.642 21.192H134.698V23.064ZM134.698 20.328H136.402C136.858 20.328 137.174 20.248 137.35 20.088C137.534 19.928 137.626 19.708 137.626 19.428C137.626 19.164 137.534 18.956 137.35 18.804C137.174 18.652 136.858 18.576 136.402 18.576H134.698V20.328ZM141.999 24.12C141.535 24.12 141.139 24.036 140.811 23.868C140.491 23.692 140.247 23.456 140.079 23.16C139.911 22.856 139.827 22.516 139.827 22.14C139.827 21.508 140.011 21.052 140.379 20.772C140.755 20.492 141.291 20.352 141.987 20.352H144.051V19.92C144.051 19.376 143.927 19 143.679 18.792C143.439 18.584 143.075 18.48 142.587 18.48C142.131 18.48 141.799 18.568 141.591 18.744C141.383 18.912 141.267 19.104 141.243 19.32H140.187C140.211 18.976 140.327 18.672 140.535 18.408C140.743 18.136 141.027 17.92 141.387 17.76C141.747 17.6 142.167 17.52 142.647 17.52C143.151 17.52 143.587 17.6 143.955 17.76C144.323 17.912 144.607 18.156 144.807 18.492C145.007 18.82 145.107 19.256 145.107 19.8V22.38C145.107 22.716 145.107 23.012 145.107 23.268C145.115 23.516 145.135 23.76 145.167 24H144.243C144.219 23.816 144.203 23.644 144.195 23.484C144.187 23.316 144.183 23.128 144.183 22.92C144.015 23.256 143.743 23.54 143.367 23.772C142.991 24.004 142.535 24.12 141.999 24.12ZM142.227 23.16C142.563 23.16 142.867 23.1 143.139 22.98C143.419 22.86 143.639 22.684 143.799 22.452C143.967 22.22 144.051 21.936 144.051 21.6V21.168H142.167C141.775 21.168 141.467 21.248 141.243 21.408C141.019 21.56 140.907 21.804 140.907 22.14C140.907 22.436 141.011 22.68 141.219 22.872C141.435 23.064 141.771 23.16 142.227 23.16ZM148.067 24V18.576H145.895V17.64H151.295V18.576H149.123V24H148.067ZM152.258 24V17.64H153.314V20.04H154.838C155.638 20.04 156.226 20.216 156.602 20.568C156.986 20.92 157.178 21.408 157.178 22.032C157.178 22.432 157.094 22.78 156.926 23.076C156.758 23.372 156.502 23.6 156.158 23.76C155.814 23.92 155.374 24 154.838 24H152.258ZM153.314 23.064H154.778C155.274 23.064 155.622 22.976 155.822 22.8C156.022 22.624 156.122 22.364 156.122 22.02C156.122 21.676 156.022 21.416 155.822 21.24C155.622 21.064 155.274 20.976 154.778 20.976H153.314V23.064Z" fill="white"/>
<path d="M183.638 24V15.6H190.238V24H189.11V16.584H184.766V24H183.638ZM192.158 26.4V17.64H193.142V18.84C193.358 18.416 193.658 18.092 194.042 17.868C194.434 17.636 194.886 17.52 195.398 17.52C196.198 17.52 196.838 17.784 197.318 18.312C197.798 18.832 198.038 19.608 198.038 20.64V20.88C198.038 21.6 197.926 22.2 197.702 22.68C197.486 23.16 197.178 23.52 196.778 23.76C196.386 24 195.926 24.12 195.398 24.12C194.854 24.12 194.398 24 194.03 23.76C193.67 23.52 193.398 23.22 193.214 22.86V26.4H192.158ZM195.158 23.184C195.678 23.184 196.11 22.988 196.454 22.596C196.806 22.204 196.982 21.632 196.982 20.88V20.64C196.982 19.944 196.806 19.408 196.454 19.032C196.11 18.648 195.678 18.456 195.158 18.456C194.774 18.456 194.434 18.536 194.138 18.696C193.85 18.856 193.622 19.076 193.454 19.356C193.294 19.628 193.214 19.936 193.214 20.28V21.24C193.214 21.624 193.294 21.964 193.454 22.26C193.622 22.548 193.85 22.776 194.138 22.944C194.434 23.104 194.774 23.184 195.158 23.184ZM201.941 24.12C201.405 24.12 200.901 24.004 200.429 23.772C199.965 23.532 199.589 23.172 199.301 22.692C199.021 22.212 198.881 21.608 198.881 20.88V20.64C198.881 19.952 199.021 19.376 199.301 18.912C199.589 18.448 199.965 18.1 200.429 17.868C200.901 17.636 201.405 17.52 201.941 17.52C202.485 17.52 202.989 17.636 203.453 17.868C203.917 18.1 204.289 18.448 204.569 18.912C204.857 19.376 205.001 19.952 205.001 20.64V20.88C205.001 21.608 204.857 22.212 204.569 22.692C204.289 23.172 203.917 23.532 203.453 23.772C202.989 24.004 202.485 24.12 201.941 24.12ZM201.941 23.16C202.269 23.16 202.581 23.088 202.877 22.944C203.181 22.792 203.429 22.548 203.621 22.212C203.821 21.876 203.921 21.432 203.921 20.88V20.64C203.921 20.128 203.821 19.716 203.621 19.404C203.429 19.084 203.181 18.852 202.877 18.708C202.581 18.556 202.269 18.48 201.941 18.48C201.621 18.48 201.309 18.556 201.005 18.708C200.701 18.852 200.449 19.084 200.249 19.404C200.057 19.716 199.961 20.128 199.961 20.64V20.88C199.961 21.432 200.057 21.876 200.249 22.212C200.449 22.548 200.701 22.792 201.005 22.944C201.309 23.088 201.621 23.16 201.941 23.16ZM208.896 24.12C208.36 24.12 207.856 24.004 207.384 23.772C206.92 23.54 206.544 23.184 206.256 22.704C205.976 22.224 205.836 21.616 205.836 20.88V20.64C205.836 19.936 205.972 19.356 206.244 18.9C206.516 18.436 206.876 18.092 207.324 17.868C207.772 17.636 208.256 17.52 208.776 17.52C209.712 17.52 210.436 17.776 210.948 18.288C211.46 18.8 211.716 19.524 211.716 20.46V21.132H206.892C206.892 21.628 206.992 22.024 207.192 22.32C207.4 22.616 207.656 22.832 207.96 22.968C208.272 23.096 208.584 23.16 208.896 23.16C209.376 23.16 209.744 23.08 210 22.92C210.264 22.76 210.452 22.54 210.564 22.26H211.596C211.468 22.868 211.152 23.332 210.648 23.652C210.152 23.964 209.568 24.12 208.896 24.12ZM208.836 18.48C208.508 18.48 208.196 18.544 207.9 18.672C207.604 18.792 207.36 18.984 207.168 19.248C206.984 19.512 206.892 19.852 206.892 20.268H210.72C210.712 19.828 210.62 19.48 210.444 19.224C210.276 18.96 210.052 18.772 209.772 18.66C209.492 18.54 209.18 18.48 208.836 18.48ZM212.977 24V17.64H214.033V20.304H214.873L217.249 17.64H218.497L215.737 20.688L218.617 24H217.273L214.873 21.216H214.033V24H212.977ZM221.091 24V18.576H218.919V17.64H224.319V18.576H222.147V24H221.091Z" fill="white"/>
<path d="M250.626 24V15.6H253.626C254.626 15.6 255.354 15.812 255.81 16.236C256.274 16.652 256.506 17.188 256.506 17.844C256.506 18.276 256.386 18.648 256.146 18.96C255.906 19.264 255.61 19.484 255.258 19.62C255.754 19.732 256.146 19.96 256.434 20.304C256.722 20.64 256.866 21.08 256.866 21.624C256.866 22.08 256.766 22.488 256.566 22.848C256.366 23.2 256.046 23.48 255.606 23.688C255.166 23.896 254.586 24 253.866 24H250.626ZM251.754 23.016H253.866C254.586 23.016 255.078 22.888 255.342 22.632C255.606 22.368 255.738 22.02 255.738 21.588C255.738 21.148 255.606 20.8 255.342 20.544C255.078 20.28 254.582 20.148 253.854 20.148H251.754V23.016ZM251.754 19.212H253.626C254.298 19.212 254.758 19.088 255.006 18.84C255.254 18.592 255.378 18.276 255.378 17.892C255.378 17.5 255.254 17.184 255.006 16.944C254.758 16.704 254.298 16.584 253.626 16.584H251.754V19.212ZM258.185 24V17.64H259.241V22.44L262.529 17.64H263.585V24H262.529V19.2L259.241 24H258.185ZM264.549 25.5V23.064H265.329C265.449 22.904 265.553 22.636 265.641 22.26C265.729 21.876 265.797 21.428 265.845 20.916C265.901 20.404 265.929 19.872 265.929 19.32V17.64H270.369V23.064H271.269V25.5H270.261V24H265.557V25.5H264.549ZM266.409 23.064H269.313V18.576H266.961V19.56C266.961 20.232 266.913 20.884 266.817 21.516C266.729 22.14 266.593 22.656 266.409 23.064Z" fill="white"/>
<path d="M297.595 24V15.6H304.195V24H303.067V16.584H298.723V24H297.595ZM308.755 24.12C308.219 24.12 307.715 24.004 307.243 23.772C306.779 23.532 306.403 23.172 306.115 22.692C305.835 22.212 305.695 21.608 305.695 20.88V20.64C305.695 19.952 305.835 19.376 306.115 18.912C306.403 18.448 306.779 18.1 307.243 17.868C307.715 17.636 308.219 17.52 308.755 17.52C309.299 17.52 309.803 17.636 310.267 17.868C310.731 18.1 311.103 18.448 311.383 18.912C311.671 19.376 311.815 19.952 311.815 20.64V20.88C311.815 21.608 311.671 22.212 311.383 22.692C311.103 23.172 310.731 23.532 310.267 23.772C309.803 24.004 309.299 24.12 308.755 24.12ZM308.755 23.16C309.083 23.16 309.395 23.088 309.691 22.944C309.995 22.792 310.243 22.548 310.435 22.212C310.635 21.876 310.735 21.432 310.735 20.88V20.64C310.735 20.128 310.635 19.716 310.435 19.404C310.243 19.084 309.995 18.852 309.691 18.708C309.395 18.556 309.083 18.48 308.755 18.48C308.435 18.48 308.123 18.556 307.819 18.708C307.515 18.852 307.263 19.084 307.063 19.404C306.871 19.716 306.775 20.128 306.775 20.64V20.88C306.775 21.432 306.871 21.876 307.063 22.212C307.263 22.548 307.515 22.792 307.819 22.944C308.123 23.088 308.435 23.16 308.755 23.16ZM313.07 24V17.64H314.198L316.466 21.6L318.734 17.64H319.79V24H318.734V19.38L316.85 22.62H316.01L314.126 19.38V24H313.07ZM324.107 24.12C323.571 24.12 323.067 24.004 322.595 23.772C322.131 23.532 321.755 23.172 321.467 22.692C321.187 22.212 321.047 21.608 321.047 20.88V20.64C321.047 19.952 321.187 19.376 321.467 18.912C321.755 18.448 322.131 18.1 322.595 17.868C323.067 17.636 323.571 17.52 324.107 17.52C324.651 17.52 325.155 17.636 325.619 17.868C326.083 18.1 326.455 18.448 326.735 18.912C327.023 19.376 327.167 19.952 327.167 20.64V20.88C327.167 21.608 327.023 22.212 326.735 22.692C326.455 23.172 326.083 23.532 325.619 23.772C325.155 24.004 324.651 24.12 324.107 24.12ZM324.107 23.16C324.435 23.16 324.747 23.088 325.043 22.944C325.347 22.792 325.595 22.548 325.787 22.212C325.987 21.876 326.087 21.432 326.087 20.88V20.64C326.087 20.128 325.987 19.716 325.787 19.404C325.595 19.084 325.347 18.852 325.043 18.708C324.747 18.556 324.435 18.48 324.107 18.48C323.787 18.48 323.475 18.556 323.171 18.708C322.867 18.852 322.615 19.084 322.415 19.404C322.223 19.716 322.127 20.128 322.127 20.64V20.88C322.127 21.432 322.223 21.876 322.415 22.212C322.615 22.548 322.867 22.792 323.171 22.944C323.475 23.088 323.787 23.16 324.107 23.16ZM336.234 25.5V24H328.422V17.64H329.478V23.064H331.794V17.64H332.85V23.064H335.166V17.64H336.222V23.064H337.242V25.5H336.234ZM338.26 24V17.64H339.316V20.04H340.84C341.64 20.04 342.228 20.216 342.604 20.568C342.988 20.92 343.18 21.408 343.18 22.032C343.18 22.432 343.096 22.78 342.928 23.076C342.76 23.372 342.504 23.6 342.16 23.76C341.816 23.92 341.376 24 340.84 24H338.26ZM339.316 23.064H340.78C341.276 23.064 341.624 22.976 341.824 22.8C342.024 22.624 342.124 22.364 342.124 22.02C342.124 21.676 342.024 21.416 341.824 21.24C341.624 21.064 341.276 20.976 340.78 20.976H339.316V23.064Z" fill="white"/>
<mask id="mask0_4550_115209" style="mask-type:alpha" maskUnits="userSpaceOnUse" x="14" y="44" width="16" height="16">
<rect x="14" y="44" width="16" height="16" fill="white"/>
</mask>
<g mask="url(#mask0_4550_115209)">
<path d="M18.1466 58.5768C17.8098 58.5768 17.5247 58.4602 17.2914 58.2268C17.0581 57.9935 16.9414 57.7084 16.9414 57.3717V47.1153C16.9414 46.7785 17.0581 46.4935 17.2914 46.2602C17.5247 46.0268 17.8098 45.9102 18.1466 45.9102H22.9427C23.1034 45.9102 23.2579 45.9414 23.4062 46.0038C23.5545 46.0662 23.6833 46.152 23.7927 46.2615L26.5901 49.0588C26.6995 49.1683 26.7854 49.2971 26.8477 49.4453C26.9102 49.5937 26.9414 49.7482 26.9414 49.9088V57.3717C26.9414 57.7084 26.8247 57.9935 26.5914 58.2268C26.3581 58.4602 26.073 58.5768 25.7362 58.5768H18.1466ZM22.9414 49.3075V46.9102H18.1466C18.0952 46.9102 18.0482 46.9315 18.0056 46.9743C17.9628 47.017 17.9414 47.064 17.9414 47.1153V57.3717C17.9414 57.423 17.9628 57.47 18.0056 57.5127C18.0482 57.5554 18.0952 57.5768 18.1466 57.5768H25.7362C25.7876 57.5768 25.8346 57.5554 25.8772 57.5127C25.92 57.47 25.9414 57.423 25.9414 57.3717V49.9102H23.5441C23.3722 49.9102 23.2288 49.8527 23.1139 49.7377C22.9989 49.6228 22.9414 49.4794 22.9414 49.3075Z" fill="white"/>
</g>
<mask id="mask1_4550_115209" style="mask-type:alpha" maskUnits="userSpaceOnUse" x="40" y="44" width="16" height="16">
<rect x="40" y="44" width="16" height="16" fill="white"/>
</mask>
<g mask="url(#mask1_4550_115209)">
<path d="M42.6945 56.9883C42.3706 56.9883 42.0952 56.8748 41.8682 56.6479C41.6413 56.4209 41.5278 56.1455 41.5278 55.8216V48.1934C41.5278 47.8696 41.6477 47.5877 41.8875 47.3479C42.1273 47.1082 42.4091 46.9883 42.733 46.9883H45.8945C46.0552 46.9883 46.2097 47.0195 46.358 47.0819C46.5062 47.1443 46.6351 47.2302 46.7445 47.3396L47.7265 48.3216H53.6368C53.7787 48.3216 53.8975 48.3695 53.9932 48.4653C54.0889 48.5609 54.1368 48.6797 54.1368 48.8216C54.1368 48.9635 54.0889 49.0823 53.9932 49.1779C53.8975 49.2737 53.7787 49.3216 53.6368 49.3216H47.3175L45.9842 47.9883H42.733C42.6731 47.9883 42.6239 48.0075 42.5855 48.0459C42.5471 48.0844 42.5278 48.1336 42.5278 48.1934V55.9883C42.5278 55.9284 42.5396 55.9059 42.5632 55.9209C42.5866 55.9359 42.6176 55.9541 42.656 55.9754L43.9535 51.6434C44.0338 51.3844 44.1817 51.1763 44.397 51.0191C44.6124 50.8618 44.8518 50.7831 45.115 50.7831H53.6893C54.0979 50.7831 54.4221 50.9455 54.6618 51.2703C54.9015 51.5951 54.9645 51.9493 54.8508 52.3331L53.7022 56.1601C53.6261 56.4104 53.4836 56.6111 53.2747 56.7619C53.0657 56.9128 52.8338 56.9883 52.5792 56.9883H42.6945ZM43.7035 55.9883H52.5535C52.6005 55.9883 52.6422 55.9754 52.6785 55.9498C52.7148 55.9241 52.7394 55.8878 52.7522 55.8408L53.8882 52.0459C53.9095 51.9776 53.8988 51.9167 53.856 51.8633C53.8133 51.8098 53.7578 51.7831 53.6893 51.7831H45.115C45.068 51.7831 45.0263 51.7959 44.99 51.8216C44.9537 51.8473 44.9291 51.8836 44.9163 51.9306L43.7035 55.9883ZM43.7035 55.9883L44.9163 51.9306C44.9291 51.8836 44.9398 51.8473 44.9483 51.8216L44.9612 51.7831L44.9387 51.8633C44.9238 51.9167 44.9056 51.9776 44.8842 52.0459L43.7483 55.8408C43.7356 55.8878 43.7249 55.9241 43.7163 55.9498L43.7035 55.9883Z" fill="white"/>
</g>
<mask id="mask2_4550_115209" style="mask-type:alpha" maskUnits="userSpaceOnUse" x="66" y="44" width="16" height="16">
<rect x="66" y="44" width="16" height="16" fill="white"/>
</mask>
<g mask="url(#mask2_4550_115209)">
<path d="M69.275 57.6029C68.9382 57.6029 68.6532 57.4862 68.4198 57.2529C68.1865 57.0195 68.0698 56.7345 68.0698 56.3977V47.4747C68.0698 47.1379 68.1865 46.8529 68.4198 46.6195C68.6532 46.3862 68.9382 46.2695 69.275 46.2695H76.43C76.5908 46.2695 76.7453 46.3008 76.8935 46.3632C77.0418 46.4255 77.1707 46.5114 77.28 46.6209L79.0518 48.3927C79.1613 48.502 79.2472 48.6309 79.3095 48.7792C79.3719 48.9274 79.4032 49.0819 79.4032 49.2427V56.3977C79.4032 56.7345 79.2865 57.0195 79.0532 57.2529C78.8198 57.4862 78.5348 57.6029 78.198 57.6029H69.275ZM78.4032 49.1695L76.5032 47.2695H69.275C69.2151 47.2695 69.1659 47.2888 69.1275 47.3272C69.089 47.3656 69.0698 47.4148 69.0698 47.4747V56.3977C69.0698 56.4576 69.089 56.5068 69.1275 56.5452C69.1659 56.5836 69.2151 56.6029 69.275 56.6029H78.198C78.2579 56.6029 78.307 56.5836 78.3455 56.5452C78.3839 56.5068 78.4032 56.4576 78.4032 56.3977V49.1695ZM73.7365 55.449C74.198 55.449 74.5912 55.2866 74.916 54.9619C75.2408 54.6371 75.4032 54.2439 75.4032 53.7824C75.4032 53.3208 75.2408 52.9276 74.916 52.6029C74.5912 52.2781 74.198 52.1157 73.7365 52.1157C73.2749 52.1157 72.8818 52.2781 72.557 52.6029C72.2322 52.9276 72.0698 53.3208 72.0698 53.7824C72.0698 54.2439 72.2322 54.6371 72.557 54.9619C72.8818 55.2866 73.2749 55.449 73.7365 55.449ZM70.5955 50.5259H74.8647C75.0364 50.5259 75.1798 50.4684 75.2948 50.3535C75.4097 50.2385 75.4672 50.0951 75.4672 49.9234V48.7952C75.4672 48.6234 75.4097 48.48 75.2948 48.365C75.1798 48.2501 75.0364 48.1927 74.8647 48.1927H70.5955C70.4237 48.1927 70.2803 48.2501 70.1653 48.365C70.0504 48.48 69.993 48.6234 69.993 48.7952V49.9234C69.993 50.0951 70.0504 50.2385 70.1653 50.3535C70.2803 50.4684 70.4237 50.5259 70.5955 50.5259Z" fill="white"/>
</g>
<mask id="mask3_4550_115209" style="mask-type:alpha" maskUnits="userSpaceOnUse" x="102" y="44" width="16" height="16">
<rect x="102" y="44" width="16" height="16" fill="#D9D9D9"/>
</mask>
<g mask="url(#mask3_4550_115209)">
<path d="M110 58.6657C109.167 58.6657 108.386 58.5074 107.658 58.1907C106.931 57.874 106.297 57.4463 105.758 56.9074C105.219 56.3685 104.792 55.7351 104.475 55.0074C104.158 54.2796 104 53.499 104 52.6657C104 52.4768 104.064 52.3185 104.192 52.1907C104.319 52.0629 104.478 51.999 104.667 51.999C104.856 51.999 105.014 52.0629 105.142 52.1907C105.269 52.3185 105.333 52.4768 105.333 52.6657C105.333 53.9657 105.786 55.0685 106.692 55.974C107.597 56.8796 108.7 57.3324 110 57.3324C111.3 57.3324 112.403 56.8796 113.308 55.974C114.214 55.0685 114.667 53.9657 114.667 52.6657C114.667 51.3657 114.214 50.2629 113.308 49.3574C112.403 48.4518 111.3 47.999 110 47.999H109.9L110.467 48.5657C110.6 48.699 110.664 48.8546 110.658 49.0324C110.653 49.2101 110.589 49.3657 110.467 49.499C110.333 49.6324 110.175 49.7018 109.992 49.7074C109.808 49.7129 109.65 49.649 109.517 49.5157L107.8 47.799C107.667 47.6657 107.6 47.5101 107.6 47.3324C107.6 47.1546 107.667 46.999 107.8 46.8657L109.517 45.149C109.65 45.0157 109.808 44.9518 109.992 44.9574C110.175 44.9629 110.333 45.0324 110.467 45.1657C110.589 45.299 110.653 45.4546 110.658 45.6324C110.664 45.8101 110.6 45.9657 110.467 46.099L109.9 46.6657H110C110.833 46.6657 111.614 46.824 112.342 47.1407C113.069 47.4574 113.703 47.8851 114.242 48.424C114.781 48.9629 115.208 49.5963 115.525 50.324C115.842 51.0518 116 51.8324 116 52.6657C116 53.499 115.842 54.2796 115.525 55.0074C115.208 55.7351 114.781 56.3685 114.242 56.9074C113.703 57.4463 113.069 57.874 112.342 58.1907C111.614 58.5074 110.833 58.6657 110 58.6657Z" fill="white"/>
</g>
<mask id="mask4_4550_115209" style="mask-type:alpha" maskUnits="userSpaceOnUse" x="138" y="44" width="16" height="16">
<rect x="138" y="44" width="16" height="16" fill="#D9D9D9"/>
</mask>
<g mask="url(#mask4_4550_115209)">
<path d="M142.283 51.3833L144.217 53.3167C144.35 53.45 144.414 53.6056 144.408 53.7833C144.403 53.9611 144.333 54.1167 144.2 54.25C144.067 54.3722 143.911 54.4361 143.733 54.4417C143.556 54.4472 143.4 54.3833 143.267 54.25L140.2 51.1833C140.067 51.05 140 50.8944 140 50.7167C140 50.5389 140.067 50.3833 140.2 50.25L143.267 47.1833C143.389 47.0611 143.542 47 143.725 47C143.908 47 144.067 47.0611 144.2 47.1833C144.333 47.3167 144.4 47.475 144.4 47.6583C144.4 47.8417 144.333 48 144.2 48.1333L142.283 50.05H148.4C149.322 50.05 150.108 50.375 150.758 51.025C151.408 51.675 151.733 52.4611 151.733 53.3833V55.3833C151.733 55.5722 151.669 55.7306 151.542 55.8583C151.414 55.9861 151.256 56.05 151.067 56.05C150.878 56.05 150.719 55.9861 150.592 55.8583C150.464 55.7306 150.4 55.5722 150.4 55.3833V53.3833C150.4 52.8278 150.206 52.3556 149.817 51.9667C149.428 51.5778 148.956 51.3833 148.4 51.3833H142.283Z" fill="white"/>
</g>
<mask id="mask5_4550_115209" style="mask-type:alpha" maskUnits="userSpaceOnUse" x="164" y="44" width="16" height="16">
<rect width="16" height="16" transform="matrix(-1 0 0 1 180 44)" fill="#D9D9D9"/>
</mask>
<g mask="url(#mask5_4550_115209)">
<path d="M175.717 51.3833L173.783 53.3167C173.65 53.45 173.586 53.6056 173.592 53.7833C173.597 53.9611 173.667 54.1167 173.8 54.25C173.933 54.3722 174.089 54.4361 174.267 54.4417C174.444 54.4472 174.6 54.3833 174.733 54.25L177.8 51.1833C177.933 51.05 178 50.8944 178 50.7167C178 50.5389 177.933 50.3833 177.8 50.25L174.733 47.1833C174.611 47.0611 174.458 47 174.275 47C174.092 47 173.933 47.0611 173.8 47.1833C173.667 47.3167 173.6 47.475 173.6 47.6583C173.6 47.8417 173.667 48 173.8 48.1333L175.717 50.05H169.6C168.678 50.05 167.892 50.375 167.242 51.025C166.592 51.675 166.267 52.4611 166.267 53.3833V55.3833C166.267 55.5722 166.331 55.7306 166.458 55.8583C166.586 55.9861 166.744 56.05 166.933 56.05C167.122 56.05 167.281 55.9861 167.408 55.8583C167.536 55.7306 167.6 55.5722 167.6 55.3833V53.3833C167.6 52.8278 167.794 52.3556 168.183 51.9667C168.572 51.5778 169.044 51.3833 169.6 51.3833H175.717Z" fill="white"/>
</g>
<mask id="mask6_4550_115209" style="mask-type:alpha" maskUnits="userSpaceOnUse" x="200" y="44" width="16" height="16">
<rect x="200" y="44" width="16" height="16" fill="white"/>
</mask>
<g mask="url(#mask6_4550_115209)">
<path d="M202.733 56.1052C202.396 56.1052 202.111 55.9885 201.878 55.7552C201.644 55.5218 201.528 55.2368 201.528 54.9V47.7462C201.528 47.4094 201.644 47.1243 201.878 46.891C202.111 46.6577 202.396 46.541 202.733 46.541H207.509C207.651 46.541 207.769 46.5889 207.865 46.6847C207.961 46.7803 208.009 46.8991 208.009 47.041C208.009 47.1829 207.961 47.3017 207.865 47.3973C207.769 47.4931 207.651 47.541 207.509 47.541H202.733C202.682 47.541 202.635 47.5624 202.592 47.6052C202.549 47.6478 202.528 47.6948 202.528 47.7462V54.9C202.528 54.9512 202.549 54.9982 202.592 55.041C202.635 55.0838 202.682 55.1052 202.733 55.1052H212.989C213.041 55.1052 213.088 55.0838 213.13 55.041C213.173 54.9982 213.194 54.9512 213.194 54.9V53.3743C213.194 53.2325 213.242 53.1137 213.338 53.018C213.434 52.9222 213.553 52.8743 213.694 52.8743C213.836 52.8743 213.955 52.9222 214.051 53.018C214.147 53.1137 214.194 53.2325 214.194 53.3743V54.9C214.194 55.2368 214.078 55.5218 213.844 55.7552C213.611 55.9885 213.326 56.1052 212.989 56.1052H210.874L211.283 56.514C211.345 56.5765 211.391 56.644 211.42 56.7167C211.449 56.7893 211.464 56.8658 211.464 56.9462V57.2717C211.464 57.4436 211.406 57.587 211.291 57.7018C211.176 57.8168 211.033 57.8743 210.861 57.8743H204.861C204.689 57.8743 204.546 57.8168 204.431 57.7018C204.316 57.587 204.259 57.4436 204.259 57.2717V56.9462C204.259 56.8658 204.273 56.7893 204.302 56.7167C204.331 56.644 204.377 56.5765 204.439 56.514L204.848 56.1052H202.733ZM209.598 52.0615V47.041C209.598 46.8991 209.646 46.7803 209.742 46.6847C209.838 46.5889 209.956 46.541 210.098 46.541C210.24 46.541 210.359 46.5889 210.455 46.6847C210.55 46.7803 210.598 46.8991 210.598 47.041V52.0615L212.141 50.523C212.233 50.4265 212.347 50.3765 212.484 50.373C212.62 50.3697 212.74 50.4197 212.843 50.523C212.94 50.6197 212.988 50.7368 212.988 50.8743C212.988 51.0119 212.94 51.129 212.843 51.2257L210.098 53.9705L207.353 51.2257C207.261 51.1333 207.212 51.019 207.207 50.8827C207.201 50.7463 207.25 50.6265 207.353 50.523C207.45 50.4265 207.567 50.3782 207.705 50.3782C207.842 50.3782 207.959 50.4265 208.056 50.523L209.598 52.0615Z" fill="white"/>
</g>
<mask id="mask7_4550_115209" style="mask-type:alpha" maskUnits="userSpaceOnUse" x="236" y="44" width="16" height="16">
<rect x="236" y="44" width="16" height="16" fill="white"/>
</mask>
<g mask="url(#mask7_4550_115209)">
<path d="M247.829 57.0763L244.68 53.9276L245.734 52.8738L248.883 56.0224C249.025 56.1643 249.096 56.34 249.096 56.5494C249.096 56.7588 249.025 56.9344 248.883 57.0763C248.741 57.2182 248.565 57.2891 248.356 57.2891C248.146 57.2891 247.971 57.2182 247.829 57.0763ZM238.597 57.0763C238.455 56.9344 238.384 56.7588 238.384 56.5494C238.384 56.34 238.455 56.1643 238.597 56.0224L242.689 51.9303L241.133 50.3801C241.023 50.4895 240.885 50.5443 240.717 50.5443C240.55 50.5443 240.411 50.4895 240.302 50.3801L239.976 50.0481V51.4391C239.976 51.5775 239.915 51.6714 239.792 51.7206C239.67 51.7697 239.559 51.7451 239.461 51.6468L237.779 49.9648C237.681 49.8664 237.656 49.756 237.705 49.6334C237.754 49.5108 237.848 49.4494 237.987 49.4494H239.378L239.069 49.1404C238.948 49.0199 238.888 48.8782 238.888 48.7154C238.888 48.5527 238.948 48.411 239.069 48.2904L240.546 46.8136C240.734 46.6255 240.937 46.4879 241.156 46.4008C241.376 46.3135 241.604 46.2699 241.84 46.2699C242.028 46.2699 242.206 46.2969 242.372 46.3508C242.539 46.4045 242.702 46.4896 242.861 46.6059C242.937 46.6572 242.979 46.7274 242.987 46.8168C242.994 46.9061 242.964 46.9854 242.894 47.0546L241.82 48.1289L242.187 48.4956C242.296 48.6049 242.351 48.7434 242.351 48.9109C242.351 49.0785 242.296 49.2169 242.187 49.3263L243.743 50.8764L245.346 49.2738C245.271 49.1388 245.217 48.9993 245.183 48.8553C245.149 48.7112 245.131 48.5597 245.131 48.4008C245.131 47.8008 245.338 47.2939 245.752 46.8803C246.166 46.4666 246.672 46.2598 247.272 46.2598C247.349 46.2598 247.418 46.2614 247.481 46.2648C247.544 46.2682 247.61 46.2789 247.679 46.2969C247.762 46.3259 247.816 46.3847 247.842 46.4731C247.867 46.5617 247.848 46.6384 247.783 46.7033L246.763 47.7224C246.701 47.7849 246.67 47.8563 246.67 47.9366C246.67 48.0169 246.701 48.0883 246.763 48.1508L247.522 48.9098C247.585 48.9721 247.656 49.0033 247.737 49.0033C247.817 49.0033 247.888 48.9721 247.951 48.9098L248.97 47.8904C249.035 47.8255 249.112 47.8042 249.2 47.8264C249.289 47.8487 249.347 47.9046 249.376 47.9943C249.394 48.0635 249.405 48.1295 249.408 48.1924C249.412 48.2552 249.413 48.3247 249.413 48.4008C249.413 49.0008 249.207 49.5076 248.793 49.9213C248.379 50.3349 247.872 50.5418 247.272 50.5418C247.114 50.5418 246.962 50.5264 246.818 50.4956C246.674 50.4648 246.534 50.4088 246.399 50.3276L239.651 57.0763C239.509 57.2182 239.333 57.2891 239.124 57.2891C238.914 57.2891 238.739 57.2182 238.597 57.0763Z" fill="white"/>
</g>
<mask id="mask8_4550_115209" style="mask-type:alpha" maskUnits="userSpaceOnUse" x="262" y="44" width="16" height="16">
<rect x="262" y="44" width="16" height="16" fill="white"/>
</mask>
<g mask="url(#mask8_4550_115209)">
<path d="M267.528 55.1707V49.2451C267.528 49.0691 267.588 48.9246 267.709 48.8117C267.829 48.699 267.97 48.6426 268.13 48.6426C268.182 48.6426 268.235 48.6499 268.289 48.6644C268.344 48.6789 268.397 48.7006 268.448 48.7297L273.112 51.6989C273.204 51.7614 273.272 51.8361 273.318 51.9232C273.364 52.0105 273.387 52.1054 273.387 52.2079C273.387 52.3105 273.364 52.4054 273.318 52.4926C273.272 52.5797 273.204 52.6545 273.112 52.7169L268.448 55.6861C268.397 55.7152 268.344 55.737 268.289 55.7514C268.235 55.766 268.182 55.7732 268.13 55.7732C267.97 55.7732 267.829 55.7169 267.709 55.6041C267.588 55.4912 267.528 55.3467 267.528 55.1707ZM268.528 54.4412L272.041 52.2079L268.528 49.9746V54.4412Z" fill="white"/>
</g>
<mask id="mask9_4550_115209" style="mask-type:alpha" maskUnits="userSpaceOnUse" x="288" y="44" width="16" height="16">
<rect x="288" y="44" width="16" height="16" fill="white"/>
</mask>
<g mask="url(#mask9_4550_115209)">
<path d="M292.194 54.6692V49.7462C292.194 49.4137 292.312 49.1297 292.548 48.8942C292.783 48.6587 293.067 48.541 293.4 48.541H298.323C298.655 48.541 298.939 48.6587 299.175 48.8942C299.41 49.1297 299.528 49.4137 299.528 49.7462V54.6692C299.528 55.0016 299.41 55.2856 299.175 55.5212C298.939 55.7566 298.655 55.8743 298.323 55.8743H293.4C293.067 55.8743 292.783 55.7566 292.548 55.5212C292.312 55.2856 292.194 55.0016 292.194 54.6692ZM293.4 54.8743H298.323C298.382 54.8743 298.432 54.8551 298.47 54.8167C298.508 54.7782 298.528 54.7291 298.528 54.6692V49.7462C298.528 49.6863 298.508 49.6371 298.47 49.5987C298.432 49.5602 298.382 49.541 298.323 49.541H293.4C293.34 49.541 293.29 49.5602 293.252 49.5987C293.214 49.6371 293.194 49.6863 293.194 49.7462V54.6692C293.194 54.7291 293.214 54.7782 293.252 54.8167C293.29 54.8551 293.34 54.8743 293.4 54.8743Z" fill="white"/>
</g>
<path d="M320 44C320 41.7909 321.791 40 324 40H574C576.209 40 578 41.7909 578 44V60C578 62.2091 576.209 64 574 64H324C321.791 64 320 62.2091 320 60V44Z" fill="#3E3E3E"/>
<g clip-path="url(#clip0_4550_115209)">
<path d="M334.333 53.3338H333.807L333.62 53.1538C334.42 52.2204 334.833 50.9471 334.607 49.5938C334.293 47.7404 332.747 46.2604 330.88 46.0338C328.06 45.6871 325.687 48.0604 326.033 50.8804C326.26 52.7471 327.74 54.2938 329.593 54.6071C330.947 54.8338 332.22 54.4204 333.153 53.6204L333.333 53.8071V54.3338L336.167 57.1671C336.44 57.4404 336.887 57.4404 337.16 57.1671C337.433 56.8938 337.433 56.4471 337.16 56.1738L334.333 53.3338ZM330.333 53.3338C328.673 53.3338 327.333 51.9938 327.333 50.3338C327.333 48.6738 328.673 47.3338 330.333 47.3338C331.993 47.3338 333.333 48.6738 333.333 50.3338C333.333 51.9938 331.993 53.3338 330.333 53.3338Z" fill="white"/>
</g>
<path d="M347.2 56V47.6H353.8V56H352.672V48.584H348.328V56H347.2ZM358.36 56.12C357.824 56.12 357.32 56.004 356.848 55.772C356.384 55.532 356.008 55.172 355.72 54.692C355.44 54.212 355.3 53.608 355.3 52.88V52.64C355.3 51.952 355.44 51.376 355.72 50.912C356.008 50.448 356.384 50.1 356.848 49.868C357.32 49.636 357.824 49.52 358.36 49.52C358.904 49.52 359.408 49.636 359.872 49.868C360.336 50.1 360.708 50.448 360.988 50.912C361.276 51.376 361.42 51.952 361.42 52.64V52.88C361.42 53.608 361.276 54.212 360.988 54.692C360.708 55.172 360.336 55.532 359.872 55.772C359.408 56.004 358.904 56.12 358.36 56.12ZM358.36 55.16C358.688 55.16 359 55.088 359.296 54.944C359.6 54.792 359.848 54.548 360.04 54.212C360.24 53.876 360.34 53.432 360.34 52.88V52.64C360.34 52.128 360.24 51.716 360.04 51.404C359.848 51.084 359.6 50.852 359.296 50.708C359 50.556 358.688 50.48 358.36 50.48C358.04 50.48 357.728 50.556 357.424 50.708C357.12 50.852 356.868 51.084 356.668 51.404C356.476 51.716 356.38 52.128 356.38 52.64V52.88C356.38 53.432 356.476 53.876 356.668 54.212C356.868 54.548 357.12 54.792 357.424 54.944C357.728 55.088 358.04 55.16 358.36 55.16ZM362.675 56V49.64H363.731V54.44L367.019 49.64H368.075V56H367.019V51.2L363.731 56H362.675ZM372.22 56.12C371.676 56.12 371.184 56.004 370.744 55.772C370.312 55.532 369.968 55.172 369.712 54.692C369.464 54.212 369.34 53.608 369.34 52.88V52.64C369.34 51.952 369.476 51.376 369.748 50.912C370.02 50.448 370.376 50.1 370.816 49.868C371.256 49.636 371.724 49.52 372.22 49.52C372.724 49.52 373.156 49.612 373.516 49.796C373.884 49.972 374.18 50.216 374.404 50.528C374.628 50.832 374.78 51.176 374.86 51.56H373.78C373.652 51.256 373.472 51 373.24 50.792C373.016 50.584 372.676 50.48 372.22 50.48C371.908 50.48 371.616 50.556 371.344 50.708C371.072 50.852 370.848 51.084 370.672 51.404C370.504 51.716 370.42 52.128 370.42 52.64V52.88C370.42 53.424 370.504 53.864 370.672 54.2C370.848 54.536 371.072 54.78 371.344 54.932C371.616 55.084 371.908 55.16 372.22 55.16C372.612 55.16 372.94 55.064 373.204 54.872C373.476 54.68 373.668 54.416 373.78 54.08H374.86C374.764 54.496 374.592 54.86 374.344 55.172C374.096 55.476 373.792 55.712 373.432 55.88C373.072 56.04 372.668 56.12 372.22 56.12ZM376.059 56V49.64H377.115V52.304H377.955L380.331 49.64H381.579L378.819 52.688L381.699 56H380.355L377.955 53.216H377.115V56H376.059Z" fill="#A1A1A1"/>
<defs>
<clipPath id="clip0_4550_115209">
<rect width="16" height="16" fill="white" transform="translate(324 44)"/>
</clipPath>
</defs>
</svg>
